<mxfile host="app.diagrams.net" modified="2023-10-07T12:18:58.451Z" agent="Mozilla/5.0 (Macintosh; Intel Mac OS X 10_15_7) AppleWebKit/537.36 (KHTML, like Gecko) Chrome/117.0.0.0 Safari/537.36" version="21.7.5" etag="0l3q6_mJKmY0oN-7MsH7" type="github">
  <diagram name="第 1 页" id="ljMPjPt3RSlT1g6IB5EU">
    <mxGraphModel>
      <root>
        <mxCell id="0" />
        <mxCell id="1" parent="0" />
        <mxCell id="2" value="Start" style="ellipse;aspect=fixed;strokeWidth=2;whiteSpace=wrap;" vertex="1" parent="1">
          <mxGeometry y="53" width="50" height="50" as="geometry" />
        </mxCell>
        <mxCell id="3" value="Is it necessary?" style="rhombus;strokeWidth=2;whiteSpace=wrap;" vertex="1" parent="1">
          <mxGeometry x="100" width="155" height="155" as="geometry" />
        </mxCell>
        <mxCell id="4" value="Do the thing" style="whiteSpace=wrap;strokeWidth=2;" vertex="1" parent="1">
          <mxGeometry x="348" y="19" width="103" height="34" as="geometry" />
        </mxCell>
        <mxCell id="5" value="Don&#39;t do the thing" style="whiteSpace=wrap;strokeWidth=2;" vertex="1" parent="1">
          <mxGeometry x="328" y="103" width="143" height="34" as="geometry" />
        </mxCell>
        <mxCell id="6" value="" style="curved=1;startArrow=none;endArrow=block;exitX=1.00015625;exitY=0.494375;entryX=0.00005040322580645161;entryY=0.5014112903225807;" edge="1" parent="1" source="2" target="3">
          <mxGeometry relative="1" as="geometry">
            <Array as="points" />
          </mxGeometry>
        </mxCell>
        <mxCell id="7" value="Yes" style="curved=1;startArrow=none;endArrow=block;exitX=1.0028729838709678;exitY=0.3178495889707142;entryX=0.0007205703883495146;entryY=0.4990808823529412;" edge="1" parent="1" source="3" target="4">
          <mxGeometry relative="1" as="geometry">
            <Array as="points">
              <mxPoint x="292" y="36" />
            </Array>
          </mxGeometry>
        </mxCell>
        <mxCell id="8" value="No" style="curved=1;startArrow=none;endArrow=block;exitX=1.0028729838709678;exitY=0.6849729916744471;entryX=0.0006555944055944056;entryY=0.484375;" edge="1" parent="1" source="3" target="5">
          <mxGeometry relative="1" as="geometry">
            <Array as="points">
              <mxPoint x="292" y="119" />
            </Array>
          </mxGeometry>
        </mxCell>
      </root>
    </mxGraphModel>
  </diagram>
</mxfile>
